<svg xmlns="http://www.w3.org/2000/svg" width="600" height="400" viewBox="0 0 600 400" fill="none">
  <rect width="600" height="400" fill="#f1f5f9"/>
  <rect x="50" y="50" width="500" height="300" rx="12" fill="#e2e8f0"/>
  
  <!-- Course/Education icon -->
  <circle cx="300" cy="150" r="40" fill="#3b82f6"/>
  <path d="M280 140 L320 140 L320 160 L280 160 Z" fill="white"/>
  <circle cx="290" cy="150" r="3" fill="white"/>
  <circle cx="310" cy="150" r="3" fill="white"/>
  
  <!-- Book/Certificate -->
  <rect x="220" y="200" width="160" height="100" rx="8" fill="#1e40af"/>
  <rect x="230" y="210" width="140" height="6" fill="#60a5fa"/>
  <rect x="230" y="220" width="100" height="4" fill="#60a5fa"/>
  <rect x="230" y="230" width="120" height="4" fill="#60a5fa"/>
  <rect x="230" y="240" width="90" height="4" fill="#60a5fa"/>
  
  <!-- Safety elements -->
  <path d="M150 180 L170 160 L190 180 L190 220 L150 220 Z" fill="#fbbf24"/>
  <path d="M410 180 L430 160 L450 180 L450 220 L410 220 Z" fill="#fbbf24"/>
  
  <text x="300" y="340" text-anchor="middle" fill="#64748b" font-family="Arial, sans-serif" font-size="18" font-weight="600">
    Curso de Seguridad Industrial
  </text>
  <text x="300" y="365" text-anchor="middle" fill="#94a3b8" font-family="Arial, sans-serif" font-size="14">
    Imagen no disponible
  </text>
</svg>
